<svg xmlns="http://www.w3.org/2000/svg" viewBox="0 0 1080 859.27"><defs><style>.cls-1{fill:#3fa2e2;}</style></defs><g id="Layer_2" data-name="Layer 2"><g id="Text"><path class="cls-1" d="M236.18,485l-89.8,274.55H90.2L0,485H55.39l62.9,211.65L180.79,485Z"/><path class="cls-1" d="M432.79,678.08H278.9q5.13,18.6,18.79,29.48t32.24,10.88q30.46,0,43.12-23.74h55.78q-9.09,31.65-35.2,50.64t-63.3,19q-43.12,0-73.78-31.06t-30.66-75.36q0-44.31,30.66-75.76t73.78-31.45q43.91,0,72.79,29.27,30.47,30.85,30.46,82.29A157.94,157.94,0,0,1,432.79,678.08Zm-153.1-42.72H381q-4.75-17.8-18.6-28.29t-32.44-10.48a49.44,49.44,0,0,0-31.25,10.48Q285.22,617.55,279.69,635.36Z"/><path class="cls-1" d="M645.63,555.84v212q0,41.13-24.93,66.26T555,859.27q-33.63,0-58.55-20t-30.06-51.23h54.2q4.74,22.56,34.41,22.55,19.79,0,30.07-12.26,8.31-10.68,8.31-26.9V747.71q-19.78,16.62-46.69,16.62-37.19,0-60.13-24.73t-22.94-64.68V555.84h52.22V674.92q0,18.2,9.89,29.08t28.09,10.88q17.4,0,28.48-11.28t11.08-28.68V555.84Z"/><path class="cls-1" d="M870.33,555.84V759.58H820.48V741q-20.18,23.34-51.82,23.34-36,0-58.15-24.73t-22.16-64.68V555.84h52.22V674.92q0,18.2,9.89,29.08t28.09,10.88q17.4,0,28.48-11.48t11.08-28.48V555.84Z"/><path class="cls-1" d="M1080,712.5v47.08H902v-45.1l107.6-111.56H906.33V555.84h170.11v46.68l-105.63,110Z"/><path class="cls-1" d="M786.83,198.32A101.73,101.73,0,0,0,759.23,179C756.67,93.2,686.06,24.16,599.63,24.16a158.86,158.86,0,0,0-96.54,32.66c-5.39-7-10.33-13.68-14.7-19.62l-.35-.47c-8.39-11.38-15-20.37-21.48-26.85A34.69,34.69,0,0,0,447.69.5,34,34,0,0,0,426.5,3.59l-.09,0L275.83,87.57a25.34,25.34,0,0,0-7.34,40.07l64.68,73.27,38.54,43.66a74.56,74.56,0,0,0,8.84,9.47c7.83,8.87,31.45,33.26,83.79,40.09a56.93,56.93,0,0,0,37.77-8.38L567.9,244.1a13.74,13.74,0,0,1,15.85.29l5.41,4c6.42,4.72,6.2,12-.53,16.34L461.16,344.43c-13,8.1-7.22,28.12,8.07,28.12H715.76c56.56,0,102.58-45.58,102.58-101.61A100.48,100.48,0,0,0,786.83,198.32ZM293.1,111.37l147.16-82a4.08,4.08,0,0,1,1.5-.24,6.33,6.33,0,0,1,4.1,1.39c5,5,11.5,13.83,19,24l.64.86c4.52,6.13,9.64,13.08,15.38,20.42,24.09,30.9,62.48,74,122.87,100.76L489.9,254a35,35,0,0,1-24.21,5.81c-26.15-3.43-43.95-12.16-54.28-18.87-10.91-7.1-16.07-13.53-16.53-14.12l-.16-.23-41.56-47.11Z"/></g></g></svg>