<svg xmlns="http://www.w3.org/2000/svg" viewBox="0 0 1080 246.95"><defs><style>.cls-1{fill:#fff;}</style></defs><g id="Layer_2" data-name="Layer 2"><g id="Text"><path class="cls-1" d="M523.18,0,463.92,181.17H426.85L367.33,0h36.55l41.51,139.66L486.64,0Z"/><path class="cls-1" d="M652.92,127.39H551.37a36.47,36.47,0,0,0,12.4,19.45A33.1,33.1,0,0,0,585.05,154q20.1,0,28.45-15.66h36.81a61,61,0,0,1-23.23,33.41q-17.24,12.54-41.77,12.53-28.45,0-48.69-20.49t-20.23-49.73q0-29.23,20.23-50t48.69-20.76q29,0,48,19.32Q653.44,83,653.44,117A104.26,104.26,0,0,1,652.92,127.39ZM551.9,99.2h66.82a33.47,33.47,0,0,0-12.26-18.67,34.56,34.56,0,0,0-21.41-6.91,32.64,32.64,0,0,0-20.62,6.91A36.82,36.82,0,0,0,551.9,99.2Z"/><path class="cls-1" d="M793.37,46.73V186.65q0,27.15-16.45,43.73T733.59,247q-22.2,0-38.64-13.18A53,53,0,0,1,675.11,200h35.77q3.12,14.88,22.71,14.88,13,0,19.84-8.1,5.48-7,5.48-17.75V173.34a46.4,46.4,0,0,1-30.81,11q-24.54,0-39.67-16.31t-15.15-42.68V46.73h34.46v78.58q0,12,6.53,19.18t18.53,7.18q11.49,0,18.8-7.44t7.31-18.92V46.73Z"/><path class="cls-1" d="M941.65,46.73V181.17h-32.9V168.9q-13.31,15.4-34.19,15.4-23.76,0-38.38-16.31t-14.62-42.68V46.73H856v78.58q0,12,6.53,19.18t18.53,7.18q11.49,0,18.8-7.57a26,26,0,0,0,7.31-18.79V46.73Z"/><path class="cls-1" d="M1080,150.1v31.07H962.53V151.41l71-73.62H965.4V46.73h112.25v30.8L1008,150.1Z"/><path class="cls-1" d="M346.54,132a67.45,67.45,0,0,0-18.21-12.73,105.25,105.25,0,0,0-169-80.64c-3.55-4.6-6.81-9-9.7-12.94l-.23-.32c-5.53-7.51-9.91-13.44-14.17-17.71a22.89,22.89,0,0,0-12.46-6.2,22.48,22.48,0,0,0-14,2l-.06,0L9.35,58.9A16.72,16.72,0,0,0,4.51,85.34l42.67,48.35L72.62,162.5a49.19,49.19,0,0,0,5.83,6.25c5.17,5.85,20.75,21.95,55.29,26.45a37.52,37.52,0,0,0,24.93-5.52l43.41-27.49a9.07,9.07,0,0,1,10.46.19l3.57,2.62c4.23,3.12,4.09,7.94-.35,10.78L131.64,228.4C123.09,233.75,126.88,247,137,247H299.64c37.33,0,67.69-30.07,67.69-67A66.29,66.29,0,0,0,346.54,132ZM20.75,74.61l97.1-54.12a2.76,2.76,0,0,1,1-.16,4.2,4.2,0,0,1,2.71.92c3.31,3.33,7.58,9.13,12.53,15.85l.42.56c3,4.05,6.36,8.64,10.15,13.48,15.89,20.39,41.23,48.82,81.08,66.49l-75.12,51.08a23.12,23.12,0,0,1-16,3.83c-17.26-2.26-29-8-35.81-12.45-7.2-4.69-10.61-8.93-10.91-9.32l-.11-.15L60.38,119.53Z"/></g></g></svg>